<svg fill="#f1f1f1" id="Layer_2" enable-background="new 0 0 32 32" height="50" viewBox="0 0 32 32" width="50" xmlns="http://www.w3.org/2000/svg"><path d="m16 0c-8.822 0-16 7.178-16 16s7.178 16 16 16 16-7.178 16-16-7.178-16-16-16zm6.072 22.277h-12.144c-.553 0-1-.448-1-1s.447-1 1-1h12.145c.553 0 1 .448 1 1s-.448 1-1.001 1zm0-5.277h-12.144c-.553 0-1-.448-1-1s.447-1 1-1h12.145c.553 0 1 .448 1 1s-.448 1-1.001 1zm0-5.277h-12.144c-.553 0-1-.448-1-1s.447-1 1-1h12.145c.553 0 1 .448 1 1s-.448 1-1.001 1z"/></svg>